# xmcd
#
# Track frame offsets: 
#        150
#        10063
#        21109
#        30918
#        41724
#        50931
#        59371
#        71220
#        82434
#        93364
#        104954
#        115972
#
# Disc length: 1681 seconds
#
# Revision: 0
# Processed by: cddbd v1.5.2PL0 Copyright (c) Steve Scherf et al.
# Submitted via: ExactAudioCopy v1.0b1
#
DISCID=ad068f0c
DTITLE=Porter Wagoner and Dolly Parton - Always, Always
DYEAR=1969
DGENRE=Country
TTITLE0=Milwaukee Here I Come
TTITLE1=Yours Love
TTITLE2=I Don't Believe You've Met My Baby
TTITLE3=Malena
TTITLE4=House Where Love Lives
TTITLE5=Why Don't You Haul Off And Love Me
TTITLE6=Always, Always
TTITLE7=There Never Was A Time
TTITLE8=Good As Gold
TTITLE9=My Hands Are Tied
TTITLE10=No Reason To Hurry Home
TTITLE11=Anything's Better Than Nothing
EXTD=
EXTT0=
EXTT1=
EXTT2=
EXTT3=
EXTT4=
EXTT5=
EXTT6=
EXTT7=
EXTT8=
EXTT9=
EXTT10=
EXTT11=
PLAYORDER=
